<svg width="400" height="317" viewBox="0 0 400 317" fill="none" xmlns="http://www.w3.org/2000/svg">
<path d="M64.018 178.385L61.1708 171.314L69.176 173.628L64.018 178.385ZM61.9605 172.028L64.1983 177.585L68.252 173.846L61.9605 172.028ZM69.3917 179.75C69.0245 179.75 68.6715 179.608 68.4072 179.353C68.143 179.098 67.9882 178.751 67.9757 178.384C67.9632 178.017 68.0939 177.659 68.3401 177.387C68.5864 177.115 68.929 176.949 69.2953 176.924C69.4806 176.912 69.6666 176.936 69.8427 176.995C70.0188 177.054 70.1815 177.147 70.3215 177.269C70.4616 177.391 70.5762 177.539 70.6589 177.706C70.7416 177.872 70.7907 178.053 70.8035 178.238C70.8162 178.424 70.7924 178.61 70.7332 178.786C70.6741 178.962 70.5809 179.124 70.4589 179.265C70.3369 179.405 70.1885 179.519 70.0222 179.602C69.8558 179.685 69.6749 179.734 69.4896 179.746C69.4566 179.749 69.424 179.75 69.3917 179.75ZM247.999 69.8928L243.558 65.1914L251.065 63.5719L247.999 69.8928ZM244.465 65.4727L247.874 69.0817L250.228 64.2292L244.465 65.4727ZM245.153 61.0044L240.918 60.4419L244.449 57.9971L245.153 61.0044ZM242.175 60.1385L244.545 60.4534L244.151 58.7704L242.175 60.1385ZM346.909 128.683L345.244 126.085L342.973 127.541L342.721 127.149L345.385 125.441L346.929 127.85L349.378 124.408L349.962 128.607L349.5 128.671L349.078 125.634L346.909 128.683ZM85.7017 84.9412C85.0227 84.9417 84.3595 84.7362 83.7998 84.3517C83.2401 83.9672 82.8103 83.4219 82.5673 82.7879C82.3242 82.1539 82.2792 81.461 82.4384 80.8009C82.5976 80.1408 82.9533 79.5446 83.4586 79.091C83.964 78.6375 84.595 78.348 85.2684 78.2608C85.9418 78.1736 86.6258 78.2929 87.23 78.6028C87.8342 78.9127 88.33 79.3987 88.652 79.9965C88.9741 80.5943 89.107 81.2757 89.0334 81.9507C88.9428 82.7716 88.553 83.5303 87.9384 84.0819C87.3238 84.6336 86.5275 84.9395 85.7017 84.9412ZM85.6967 78.6989C85.139 78.6993 84.5933 78.8612 84.1256 79.165C83.6579 79.4689 83.2882 79.9016 83.0611 80.411C82.834 80.9204 82.7593 81.4847 82.846 82.0356C82.9327 82.5866 83.177 83.1006 83.5496 83.5157C83.9221 83.9308 84.4068 84.2291 84.9452 84.3747C85.4836 84.5202 86.0527 84.5067 86.5836 84.3359C87.1145 84.165 87.5846 83.8441 87.937 83.4118C88.2895 82.9796 88.5092 82.4545 88.5697 81.9001C88.6135 81.4967 88.5718 81.0886 88.4474 80.7023C88.323 80.3161 88.1186 79.9604 87.8475 79.6584C87.5765 79.3564 87.2449 79.1149 86.8743 78.9496C86.5037 78.7843 86.1025 78.6988 85.6967 78.6989ZM89.6681 78.0571C89.6137 78.0571 89.5593 78.054 89.5052 78.0481C89.1187 78.0054 88.7641 77.8136 88.5169 77.5135C88.2697 77.2134 88.1493 76.8287 88.1814 76.4412C88.2134 76.0537 88.3955 75.694 88.6887 75.4386C88.9819 75.1833 89.3633 75.0524 89.7515 75.0739C90.1398 75.0954 90.5043 75.2675 90.7676 75.5537C91.0308 75.8398 91.1721 76.2174 91.1612 76.6061C91.1503 76.9948 90.9882 77.3639 90.7094 77.6349C90.4305 77.9059 90.0569 78.0574 89.6681 78.0571ZM89.6662 75.5359C89.3982 75.5357 89.1408 75.6401 88.9486 75.8269C88.7564 76.0136 88.6447 76.268 88.6372 76.5358C88.6296 76.8037 88.727 77.0639 88.9084 77.2611C89.0898 77.4584 89.341 77.577 89.6086 77.5918C89.8762 77.6066 90.1389 77.5165 90.341 77.3405C90.5431 77.1646 90.6686 76.9167 90.6907 76.6496C90.7129 76.3826 90.6299 76.1174 90.4595 75.9106C90.2891 75.7038 90.0448 75.5716 89.7784 75.5422C89.7413 75.5381 89.7039 75.536 89.6665 75.5359H89.6662Z" fill="#A0A9AF"/>
<path d="M294.032 256.272L288.063 244.597C284.032 244.974 279.967 244.749 276.002 243.93L268.025 254.063L267.659 253.775L275.814 243.414L275.956 243.444C279.971 244.288 284.092 244.516 288.176 244.118L288.334 244.103L294.269 255.713L307.453 251.698L305.836 238.12L305.961 238.041C309.277 235.955 312.273 233.399 314.854 230.451L314.956 230.336L327.663 234.446L334.147 222.285L323.618 213.998L323.657 213.85C324.69 209.898 325.118 205.812 324.927 201.732L324.92 201.582L336.238 195.796L332.224 182.612L319.966 184.072L319.891 183.934C317.717 179.989 314.899 176.436 311.553 173.421L311.441 173.32L314.972 162.403L302.811 155.918L295.946 164.64L295.794 164.596C291.064 163.191 286.115 162.666 281.196 163.047L281.041 163.059L276.321 153.827L263.137 157.841L264.345 167.983L263.882 168.038L262.628 157.509L276.559 153.268L281.315 162.571C286.188 162.212 291.085 162.731 295.775 164.104L302.686 155.324L315.535 162.175L311.977 173.177C315.274 176.169 318.059 179.68 320.223 183.572L332.556 182.103L336.798 196.034L325.399 201.861C325.573 205.887 325.151 209.917 324.146 213.82L334.742 222.16L327.891 235.01L315.104 230.874C312.548 233.77 309.596 236.289 306.334 238.357L307.963 252.031L294.032 256.272ZM285.264 229.736C281.183 229.733 277.166 228.723 273.567 226.797L273.787 226.385C277.998 228.627 282.772 229.59 287.523 229.156C292.274 228.722 296.794 226.91 300.529 223.942C304.264 220.974 307.051 216.979 308.547 212.449C310.043 207.919 310.183 203.051 308.951 198.442C307.718 193.833 305.166 189.685 301.608 186.507C298.05 183.329 293.641 181.259 288.923 180.552C284.205 179.845 279.383 180.532 275.05 182.528C270.717 184.523 267.061 187.741 264.532 191.786L264.136 191.539C266.443 187.865 269.668 184.855 273.493 182.808C277.318 180.762 281.612 179.748 285.948 179.868C290.285 179.988 294.516 181.237 298.222 183.492C301.929 185.747 304.982 188.93 307.082 192.726C309.182 196.523 310.255 200.801 310.196 205.139C310.136 209.477 308.946 213.725 306.743 217.462C304.54 221.2 301.399 224.298 297.633 226.45C293.866 228.603 289.603 229.735 285.264 229.736V229.736Z" fill="#A1B2AA"/>
<path d="M285.801 218.945L285.784 218.479C285.989 218.472 286.192 218.46 286.394 218.444L286.431 218.909C286.222 218.925 286.012 218.937 285.801 218.945ZM283.907 218.886C283.696 218.866 283.487 218.841 283.279 218.811L283.345 218.35C283.546 218.378 283.748 218.403 283.952 218.422L283.907 218.886ZM288.305 218.633L288.207 218.178C288.406 218.135 288.604 218.087 288.801 218.035L288.92 218.486C288.716 218.54 288.511 218.589 288.305 218.633ZM281.426 218.419C281.222 218.362 281.021 218.3 280.821 218.233L280.968 217.791C281.161 217.855 281.356 217.915 281.552 217.971L281.426 218.419ZM290.714 217.881L290.536 217.451C290.724 217.373 290.91 217.291 291.094 217.205L291.291 217.628C291.101 217.716 290.909 217.801 290.714 217.881ZM279.067 217.516C278.878 217.424 278.691 217.327 278.506 217.226L278.729 216.817C278.908 216.914 279.089 217.008 279.272 217.098L279.067 217.516ZM292.949 216.713L292.697 216.321C292.868 216.211 293.037 216.097 293.203 215.98L293.472 216.361C293.301 216.482 293.126 216.599 292.949 216.713ZM294.942 215.167L294.625 214.826C294.775 214.687 294.921 214.545 295.064 214.4L295.396 214.727C295.248 214.877 295.097 215.024 294.942 215.167ZM296.633 213.293L296.261 213.013C296.383 212.85 296.502 212.685 296.618 212.516L297.002 212.78C296.883 212.954 296.76 213.125 296.633 213.293V213.293ZM297.967 211.149L297.55 210.939C297.642 210.757 297.73 210.573 297.814 210.386L298.239 210.578C298.153 210.77 298.062 210.961 297.967 211.149ZM298.898 208.801L298.451 208.668C298.508 208.474 298.562 208.277 298.611 208.079L299.064 208.191C299.013 208.396 298.958 208.599 298.898 208.801ZM299.394 206.326L298.931 206.275C298.953 206.074 298.971 205.871 298.984 205.666L299.449 205.697C299.435 205.908 299.417 206.118 299.394 206.326ZM271.578 204.77H271.112C271.112 204.558 271.116 204.348 271.125 204.139L271.591 204.159C271.582 204.361 271.578 204.565 271.578 204.77ZM298.981 203.834C298.968 203.63 298.949 203.428 298.927 203.226L299.39 203.174C299.413 203.382 299.432 203.592 299.447 203.803L298.981 203.834ZM271.793 202.338L271.334 202.256C271.371 202.048 271.413 201.842 271.459 201.637L271.914 201.74C271.869 201.938 271.828 202.137 271.792 202.338H271.793ZM298.602 201.423C298.552 201.225 298.498 201.029 298.44 200.835L298.887 200.701C298.947 200.902 299.002 201.105 299.054 201.31L298.602 201.423ZM272.436 199.983L271.999 199.82C272.073 199.622 272.151 199.426 272.233 199.232L272.662 199.414C272.583 199.601 272.508 199.791 272.436 199.983H272.436ZM297.798 199.119C297.714 198.933 297.626 198.75 297.535 198.569L297.95 198.358C298.045 198.545 298.136 198.735 298.223 198.927L297.798 199.119ZM273.49 197.779L273.089 197.541C273.197 197.36 273.309 197.181 273.424 197.005L273.814 197.26C273.702 197.43 273.594 197.603 273.49 197.779ZM296.598 196.996C296.483 196.828 296.364 196.663 296.241 196.501L296.613 196.22C296.74 196.387 296.863 196.558 296.983 196.731L296.598 196.996ZM274.918 195.798L274.566 195.493C274.704 195.333 274.845 195.177 274.99 195.024L275.329 195.345C275.189 195.493 275.052 195.644 274.918 195.798ZM295.041 195.117C294.898 194.972 294.751 194.83 294.602 194.692L294.918 194.35C295.073 194.493 295.224 194.639 295.373 194.789L295.041 195.117ZM276.673 194.101L276.38 193.738C276.543 193.606 276.71 193.477 276.879 193.352L277.156 193.727C276.992 193.848 276.831 193.972 276.673 194.101ZM293.176 193.541C293.01 193.424 292.84 193.31 292.668 193.2L292.919 192.808C293.097 192.921 293.272 193.039 293.444 193.16L293.176 193.541ZM278.698 192.74L278.474 192.331C278.658 192.23 278.844 192.133 279.033 192.04L279.239 192.458C279.056 192.548 278.876 192.642 278.698 192.74ZM291.062 192.32C290.877 192.234 290.69 192.152 290.501 192.075L290.678 191.643C290.873 191.724 291.066 191.808 291.258 191.897L291.062 192.32ZM280.933 191.761L280.785 191.319C280.984 191.252 281.185 191.189 281.388 191.131L281.516 191.58C281.32 191.636 281.125 191.696 280.933 191.761ZM288.762 191.494C288.566 191.443 288.367 191.396 288.167 191.354L288.265 190.898C288.471 190.942 288.676 190.99 288.879 191.043L288.762 191.494ZM283.307 191.196L283.24 190.734C283.448 190.704 283.657 190.678 283.867 190.657L283.914 191.121C283.71 191.142 283.508 191.166 283.307 191.196ZM286.355 191.093C286.152 191.077 285.949 191.066 285.744 191.06L285.759 190.594C285.971 190.6 286.181 190.612 286.39 190.628L286.355 191.093ZM108.306 283.374L93.1341 277.493L96.0882 262.353C92.6062 259.767 89.5089 256.7 86.8892 253.243L72.2603 256.802L65.6901 241.916L78.2199 233.478C77.4173 229.023 77.2797 224.475 77.8115 219.98L65.5614 212.524L71.4417 197.353L85.0984 200.017C87.8427 195.839 91.2536 192.139 95.1953 189.065L92.1336 176.479L107.02 169.909L114.012 180.291C119.375 179.142 124.901 178.969 130.326 179.778L136.411 169.78L151.583 175.66L149.312 187.3L148.854 187.21L151.051 175.954L136.606 170.356L130.563 180.285L130.409 180.262C124.939 179.427 119.362 179.602 113.956 180.78L113.801 180.814L106.851 170.493L92.6785 176.748L95.7196 189.248L95.6003 189.34C91.6078 192.433 88.1611 196.173 85.403 200.403L85.3172 200.535L71.7354 197.885L66.1373 212.329L78.3103 219.739L78.2923 219.888C77.7391 224.435 77.8785 229.039 78.7056 233.544L78.7333 233.694L66.2741 242.084L72.5295 256.257L87.0766 252.717L87.169 252.84C89.8107 256.35 92.9483 259.458 96.4835 262.066L96.6023 262.153L93.6662 277.2L108.111 282.798L115.71 270.312L115.866 270.339C120.4 271.123 125.027 271.211 129.588 270.601L129.731 270.582L137.975 282.823L137.588 283.083L129.506 271.082C124.998 271.671 120.426 271.584 115.943 270.825L108.306 283.374ZM122.367 254.529C117.415 254.531 112.551 253.218 108.274 250.723C103.996 248.228 100.458 244.641 98.0222 240.33C95.5863 236.018 94.3398 231.137 94.4104 226.185C94.4809 221.234 95.866 216.39 98.4237 212.15C100.981 207.909 104.62 204.425 108.967 202.053C113.314 199.681 118.213 198.507 123.163 198.65C128.113 198.794 132.936 200.25 137.138 202.87C141.34 205.49 144.771 209.18 147.079 213.561L146.666 213.779C144.173 209.043 140.35 205.139 135.669 202.545C130.987 199.952 125.649 198.783 120.312 199.182C114.975 199.58 109.871 201.529 105.626 204.789C101.381 208.048 98.181 212.477 96.4186 217.531C94.6563 222.584 94.4085 228.042 95.7057 233.235C97.0029 238.427 99.7886 243.128 103.721 246.759C107.652 250.389 112.559 252.793 117.838 253.673C123.118 254.554 128.539 253.873 133.436 251.715L133.624 252.142C130.079 253.712 126.245 254.524 122.367 254.528L122.367 254.529Z" fill="#A1B2AA"/>
<path d="M122.375 242.444C122.281 242.444 122.186 242.443 122.091 242.442L122.099 241.975C122.305 241.979 122.509 241.979 122.712 241.975L122.723 242.441C122.607 242.443 122.491 242.444 122.375 242.444ZM120.206 242.297C119.997 242.269 119.789 242.237 119.583 242.2L119.664 241.741C119.864 241.776 120.066 241.808 120.269 241.836L120.206 242.297ZM124.608 242.287L124.543 241.825C124.745 241.796 124.946 241.763 125.147 241.727L125.231 242.185C125.024 242.223 124.817 242.257 124.608 242.287ZM117.744 241.761C117.542 241.7 117.342 241.635 117.144 241.566L117.297 241.126C117.489 241.193 117.683 241.256 117.879 241.315L117.744 241.761ZM127.068 241.733L126.929 241.288C127.124 241.227 127.318 241.163 127.51 241.094L127.666 241.533C127.468 241.604 127.269 241.67 127.068 241.733ZM115.398 240.84C115.209 240.748 115.022 240.652 114.838 240.553L115.059 240.142C115.238 240.238 115.419 240.331 115.602 240.421L115.398 240.84ZM129.408 240.794L129.2 240.377C129.383 240.286 129.564 240.192 129.743 240.094L129.967 240.503C129.782 240.604 129.596 240.701 129.407 240.795L129.408 240.794ZM113.231 239.558C113.059 239.437 112.89 239.313 112.723 239.185L113.006 238.815C113.168 238.939 113.332 239.059 113.499 239.177L113.231 239.558ZM111.293 237.949C111.142 237.802 110.995 237.652 110.85 237.5L111.188 237.179C111.329 237.327 111.472 237.472 111.618 237.615L111.293 237.949ZM109.632 236.054C109.507 235.885 109.385 235.714 109.266 235.54L109.65 235.277C109.765 235.445 109.884 235.611 110.006 235.775L109.632 236.054ZM108.29 233.919C108.193 233.733 108.099 233.545 108.009 233.354L108.43 233.155C108.518 233.34 108.609 233.522 108.704 233.703L108.29 233.919ZM107.303 231.599C107.237 231.399 107.174 231.198 107.115 230.995L107.563 230.865C107.62 231.062 107.681 231.258 107.746 231.451L107.303 231.599ZM106.698 229.15C106.664 228.943 106.635 228.734 106.609 228.525L107.072 228.468C107.097 228.671 107.125 228.873 107.158 229.074L106.698 229.15ZM138.182 227.753L137.717 227.718C137.732 227.514 137.743 227.31 137.75 227.107L138.216 227.123C138.209 227.332 138.197 227.542 138.182 227.753ZM106.491 226.639V226.594C106.491 226.399 106.495 226.203 106.502 226.007L106.968 226.025C106.961 226.215 106.957 226.404 106.957 226.594V226.636L106.491 226.639ZM137.706 225.272C137.689 225.068 137.667 224.865 137.642 224.663L138.106 224.606C138.131 224.814 138.153 225.023 138.17 225.233L137.706 225.272ZM107.142 224.197L106.681 224.125C106.714 223.917 106.75 223.71 106.791 223.504L107.248 223.594C107.209 223.793 107.174 223.994 107.142 224.197H107.142ZM137.307 222.857C137.258 222.658 137.204 222.461 137.147 222.265L137.595 222.134C137.654 222.336 137.709 222.54 137.76 222.745L137.307 222.857ZM107.708 221.817L107.264 221.673C107.33 221.473 107.398 221.274 107.471 221.078L107.908 221.239C107.838 221.43 107.771 221.623 107.708 221.817ZM136.528 220.536C136.448 220.348 136.364 220.162 136.276 219.977L136.697 219.778C136.787 219.967 136.874 220.159 136.957 220.353L136.528 220.536ZM108.646 219.558L108.231 219.346C108.327 219.159 108.426 218.974 108.529 218.791L108.935 219.02C108.835 219.197 108.739 219.377 108.646 219.558ZM135.391 218.369C135.282 218.197 135.169 218.026 135.053 217.858L135.438 217.594C135.557 217.767 135.672 217.942 135.785 218.12L135.391 218.369ZM109.93 217.479L109.554 217.204C109.678 217.034 109.806 216.867 109.936 216.703L110.301 216.993C110.174 217.153 110.05 217.315 109.93 217.479ZM133.926 216.409C133.791 216.256 133.653 216.106 133.512 215.958L133.85 215.637C133.995 215.789 134.137 215.944 134.276 216.102L133.926 216.409ZM111.528 215.628L111.2 215.296C111.349 215.149 111.502 215.004 111.657 214.862L111.971 215.207C111.821 215.344 111.673 215.485 111.528 215.628ZM132.171 214.705C132.014 214.575 131.854 214.449 131.692 214.325L131.975 213.954C132.142 214.082 132.306 214.213 132.468 214.346L132.171 214.705ZM113.398 214.051L113.126 213.672C113.297 213.55 113.471 213.431 113.647 213.315L113.903 213.705C113.732 213.817 113.564 213.932 113.398 214.051ZM130.17 213.301C129.995 213.197 129.817 213.098 129.638 213.001L129.858 212.59C130.043 212.69 130.226 212.793 130.407 212.899L130.17 213.301ZM115.494 212.788L115.286 212.371C115.474 212.277 115.664 212.187 115.856 212.101L116.048 212.526C115.861 212.61 115.677 212.697 115.494 212.788ZM127.972 212.231C127.782 212.157 127.591 212.087 127.397 212.02L127.549 211.579C127.749 211.648 127.946 211.721 128.141 211.797L127.972 212.231ZM117.764 211.873L117.625 211.429C117.826 211.366 118.028 211.307 118.232 211.252L118.353 211.702C118.155 211.755 117.959 211.812 117.764 211.873ZM125.63 211.526C125.431 211.483 125.231 211.444 125.029 211.409L125.109 210.949C125.317 210.986 125.523 211.026 125.728 211.071L125.63 211.526ZM120.152 211.332L120.085 210.871C120.293 210.841 120.502 210.815 120.712 210.793L120.759 211.257C120.556 211.278 120.353 211.303 120.152 211.332ZM123.205 211.2C123.001 211.188 122.796 211.181 122.593 211.178L122.6 210.712C122.81 210.715 123.02 210.723 123.231 210.734L123.205 211.2Z" fill="#A1B2AA"/>
<path d="M336.316 288.708L335.859 288.615C337.11 282.472 339.538 277.037 341.886 271.78C344.909 265.011 347.765 258.618 348.319 250.85C348.554 247.552 347.778 244.239 347.026 241.035C346.751 239.86 346.466 238.644 346.235 237.444C344.369 227.786 345.693 217.824 346.973 208.19C347.558 203.786 348.163 199.231 348.457 194.763C349.087 185.172 348.317 175.541 346.171 166.172C343.918 156.329 340.13 150.105 334.591 147.143C333.926 146.787 333.144 146.444 332.379 146.591C332.125 146.63 331.883 146.725 331.67 146.869C331.456 147.012 331.277 147.201 331.145 147.421C330.289 148.812 330.87 151.493 331.292 152.967C333.746 161.535 329.896 168.756 326.173 175.739C325.329 177.321 324.533 178.815 323.807 180.327L323.387 180.125C324.117 178.604 324.916 177.106 325.761 175.52C329.441 168.618 333.246 161.482 330.844 153.095C330.302 151.205 329.846 148.643 330.748 147.177C330.914 146.902 331.139 146.666 331.405 146.486C331.672 146.305 331.974 146.185 332.292 146.132C333.205 145.957 334.117 146.361 334.81 146.731C340.475 149.761 344.34 156.086 346.626 166.068C348.782 175.481 349.555 185.157 348.922 194.793C348.628 199.277 348.021 203.839 347.435 208.251C346.16 217.848 344.841 227.772 346.692 237.356C346.922 238.547 347.206 239.758 347.481 240.928C348.24 244.166 349.024 247.514 348.784 250.883C348.224 258.733 345.352 265.163 342.312 271.97C339.974 277.204 337.557 282.616 336.316 288.708Z" fill="#A0A9AF"/>
<path d="M352.186 289.809L351.843 289.493C358.923 281.786 360.472 274.425 362.112 266.631C362.702 263.578 363.448 260.557 364.347 257.58C367.706 247.056 365.157 237.314 363.296 230.2C362.818 228.37 362.366 226.642 362.075 225.129C361.496 222.118 362.274 215.706 363.026 209.505C363.71 203.865 364.486 197.473 363.604 196.969C363.48 196.917 363.346 196.891 363.212 196.893C363.077 196.895 362.945 196.926 362.823 196.983C360.315 197.837 354.189 204.898 349.005 217.338L348.575 217.159C353.319 205.775 359.586 197.593 362.673 196.541C362.857 196.461 363.056 196.421 363.256 196.425C363.457 196.429 363.654 196.477 363.835 196.564C364.93 197.19 364.417 201.911 363.489 209.561C362.776 215.439 361.967 222.102 362.532 225.041C362.82 226.539 363.271 228.26 363.748 230.082C365.623 237.251 368.191 247.068 364.791 257.722C363.897 260.684 363.155 263.689 362.568 266.727C360.987 274.239 359.352 282.007 352.186 289.809ZM328.026 288.495C319.835 279.621 316.86 265.386 315.807 255.007C315.117 248.168 315.008 241.283 315.478 234.425L315.943 234.466C315.474 241.297 315.584 248.156 316.272 254.968C317.318 265.274 320.266 279.401 328.369 288.179L328.026 288.495ZM332.578 285.458C332.578 285.458 332.505 285.252 332.375 284.861L332.817 284.714C332.944 285.097 333.017 285.299 333.017 285.301L332.578 285.458ZM331.814 283.072C331.757 282.883 331.698 282.684 331.637 282.474L332.085 282.344C332.145 282.552 332.204 282.751 332.26 282.939L331.814 283.072ZM331.134 280.671C331.081 280.476 331.028 280.275 330.974 280.068L331.425 279.951C331.479 280.156 331.532 280.356 331.584 280.55L331.134 280.671ZM330.518 278.254C330.47 278.056 330.422 277.854 330.373 277.648L330.827 277.541C330.875 277.746 330.923 277.947 330.971 278.145L330.518 278.254ZM329.962 275.824C329.918 275.623 329.875 275.42 329.831 275.214L330.288 275.118C330.331 275.323 330.374 275.525 330.417 275.725L329.962 275.824ZM329.463 273.381C329.424 273.178 329.386 272.974 329.348 272.768L329.806 272.683C329.844 272.888 329.882 273.091 329.921 273.293L329.463 273.381ZM329.023 270.926C328.989 270.723 328.956 270.518 328.922 270.311L329.383 270.237C329.416 270.443 329.449 270.647 329.483 270.85L329.023 270.926ZM328.642 268.462C328.613 268.258 328.585 268.052 328.557 267.845L329.019 267.782C329.047 267.988 329.075 268.193 329.104 268.397L328.642 268.462ZM328.322 265.99C328.298 265.784 328.275 265.578 328.252 265.37L328.715 265.319C328.738 265.526 328.761 265.731 328.785 265.936L328.322 265.99ZM328.065 263.51C328.047 263.303 328.029 263.096 328.011 262.889L328.476 262.849C328.493 263.056 328.511 263.262 328.53 263.468L328.065 263.51ZM327.874 261.023C327.861 260.817 327.848 260.609 327.836 260.401L328.302 260.375C328.313 260.582 328.326 260.788 328.339 260.994L327.874 261.023ZM327.751 258.533C327.743 258.326 327.737 258.118 327.731 257.91L328.197 257.897C328.203 258.104 328.209 258.31 328.217 258.516L327.751 258.533ZM327.7 256.04L327.698 255.579V255.417L328.164 255.417V255.579L328.166 256.037L327.7 256.04ZM328.19 253.559L327.724 253.547C327.729 253.34 327.735 253.133 327.742 252.925L328.208 252.941C328.201 253.147 328.195 253.354 328.19 253.559ZM328.293 251.084L327.828 251.058C327.84 250.85 327.853 250.643 327.867 250.436L328.332 250.467C328.318 250.673 328.305 250.879 328.293 251.084ZM328.48 248.615L328.015 248.571C328.035 248.365 328.055 248.158 328.076 247.951L328.54 247.999C328.519 248.204 328.499 248.41 328.48 248.615ZM328.754 246.153L328.292 246.093C328.318 245.888 328.346 245.682 328.375 245.476L328.836 245.54C328.808 245.745 328.781 245.949 328.754 246.153ZM329.121 243.704L328.661 243.627C328.695 243.422 328.731 243.217 328.768 243.013L329.227 243.095C329.19 243.298 329.155 243.501 329.121 243.704ZM329.584 241.273L329.128 241.176C329.171 240.973 329.215 240.77 329.261 240.567L329.716 240.668C329.671 240.87 329.627 241.071 329.584 241.273ZM330.15 238.863L329.698 238.747C329.75 238.546 329.803 238.345 329.857 238.144L330.307 238.265C330.254 238.464 330.201 238.664 330.15 238.863ZM311.422 287.547C311.291 287.462 298.36 278.944 301.684 266.697L301.739 266.494L301.947 266.528C315.67 268.786 320.056 285.373 320.099 285.541L319.647 285.656C319.605 285.492 315.337 269.365 302.08 267.024C299.045 278.83 311.547 287.073 311.675 287.155L311.422 287.547ZM45.7695 286.271C45.1476 285.569 44.5614 284.91 44.227 284.575C38.7828 279.131 34.9923 265.555 38.3616 253.115C39.2667 249.772 40.9891 242.94 41.7313 239.888C42.7091 235.866 39.8998 231.947 37.3711 229.367C36.8042 228.789 36.2041 228.209 35.6235 227.649C33.2764 225.383 30.8497 223.041 29.7184 219.953C27.8449 214.837 30.0487 209.138 31.8194 204.559C33.677 199.756 35.4753 194.237 33.2882 189.519C32.9585 188.843 32.5911 188.186 32.188 187.551C31.6379 186.709 31.1702 185.816 30.7916 184.885C30.1846 183.243 30.2321 180.953 31.7706 179.807C32.904 178.962 34.4325 179.046 35.4837 179.182C39.6691 179.745 43.5126 181.794 46.3131 184.955C50.5216 189.753 51.0105 196.342 51.4829 202.715C51.9444 208.937 52.4215 215.37 56.381 220.069C58.3266 222.378 61.0505 225.15 63.4539 227.597C64.1003 228.255 64.72 228.886 65.291 229.473C66.4759 230.739 67.3884 232.235 67.9719 233.867L67.5359 234.032C66.9747 232.459 66.097 231.019 64.9569 229.799C64.3862 229.211 63.7671 228.581 63.1213 227.924C60.712 225.471 57.9813 222.692 56.0242 220.369C51.9674 215.555 51.4847 209.045 51.0179 202.749C50.5511 196.453 50.0684 189.943 45.9625 185.262C43.2372 182.186 39.4968 180.192 35.4237 179.644C33.8812 179.444 32.8086 179.615 32.049 180.181C30.7027 181.184 30.6803 183.239 31.2288 184.723C31.5978 185.626 32.0523 186.492 32.5861 187.308C32.9986 187.958 33.3743 188.631 33.7112 189.323C35.975 194.207 34.1463 199.835 32.2545 204.727C30.5118 209.234 28.3431 214.842 30.1566 219.792C31.2506 222.779 33.6381 225.084 35.9474 227.314C36.5301 227.876 37.1328 228.458 37.7043 229.041C40.3156 231.705 43.2126 235.769 42.1841 239.999C41.4416 243.053 39.7177 249.891 38.8114 253.237C35.4858 265.516 39.2042 278.893 44.5568 284.246C44.9008 284.59 45.4677 285.227 46.1188 285.962L45.7695 286.271ZM81.251 288.639L80.907 288.325C81.0071 288.215 90.8136 277.304 86.6319 266.079C81.9084 267.425 78.5412 269.909 76.6223 273.466C73.1495 279.903 75.6197 287.748 75.6452 287.826L75.2014 287.969C75.1756 287.889 72.6457 279.855 76.2121 273.244C78.2211 269.52 81.7539 266.939 86.7121 265.573L86.9153 265.517L86.9915 265.713C91.4701 277.279 81.3536 288.527 81.251 288.639Z" fill="#A0A9AF"/>
<path d="M65.8346 290.498C56.76 283.992 54.6304 273.628 54.4414 266.08C54.3359 261.041 54.9336 256.012 56.2173 251.138L56.3 250.86L56.5539 251.001C68.3375 257.547 73.0516 276.915 73.0976 277.111L72.6442 277.218C72.5988 277.027 67.9996 258.138 56.5853 251.555C55.3745 256.299 54.8103 261.185 54.9079 266.08C55.0956 273.519 57.191 283.727 66.1059 290.119L65.8346 290.498ZM54.9834 238.559C54.9289 238.367 54.869 238.172 54.8035 237.973L55.2467 237.828C55.3138 238.033 55.3756 238.234 55.4319 238.431L54.9834 238.559ZM54.148 236.247C54.0689 236.061 53.9865 235.872 53.9009 235.682L54.3264 235.491C54.4132 235.684 54.4968 235.876 54.5772 236.065L54.148 236.247ZM53.0994 234.007C53.0072 233.825 52.9129 233.641 52.8166 233.456L53.2299 233.241C53.3273 233.427 53.4225 233.613 53.5155 233.797L53.0994 234.007ZM51.9314 231.82C51.8311 231.641 51.7295 231.461 51.6265 231.28L52.0315 231.049C52.1351 231.231 52.2373 231.412 52.3382 231.593L51.9314 231.82ZM50.6885 229.671L50.3697 229.138L50.769 228.897L51.0892 229.432L50.6885 229.671ZM49.3975 227.547L49.0696 227.019L49.4649 226.772L49.7937 227.301L49.3975 227.547ZM48.0757 225.44L47.7431 224.916L48.1363 224.666L48.4694 225.19L48.0757 225.44ZM46.7383 223.342L46.403 222.818L46.7958 222.567L47.1311 223.091L46.7383 223.342ZM45.3975 221.244L45.0637 220.719L45.4575 220.469L45.791 220.994L45.3975 221.244ZM44.0692 219.135L43.7416 218.605L44.1388 218.361L44.4651 218.889L44.0692 219.135ZM42.7763 217C42.6693 216.818 42.565 216.638 42.4633 216.46L42.8679 216.228C42.9686 216.404 43.0722 216.583 43.1787 216.765L42.7763 217ZM41.5641 214.81C41.4659 214.618 41.373 214.43 41.2854 214.247L41.7059 214.046C41.7917 214.225 41.8828 214.409 41.9794 214.598L41.5641 214.81ZM40.5774 212.481C40.5187 212.276 40.4679 212.069 40.4251 211.86L40.8816 211.765C40.9245 211.973 40.9727 212.17 41.0252 212.351L40.5774 212.481ZM40.1792 209.982C40.1643 209.778 40.1519 209.569 40.1419 209.355L40.6078 209.333C40.6174 209.543 40.6295 209.747 40.6442 209.947L40.1792 209.982ZM40.5768 207.481L40.1106 207.478C40.112 207.272 40.1149 207.064 40.1193 206.853L40.5855 206.862C40.5813 207.071 40.5784 207.278 40.5768 207.481ZM40.6489 205.004L40.1833 204.983C40.1928 204.777 40.203 204.569 40.2137 204.361L40.6793 204.385C40.6685 204.593 40.6584 204.799 40.6489 205.004ZM40.7887 202.525L40.3231 202.495L40.3635 201.874L40.8288 201.904L40.7887 202.525ZM40.9534 200.043L40.4885 200.012L40.5298 199.392L40.9951 199.423L40.9534 200.043ZM41.1113 197.559L40.6457 197.532L40.6799 196.912L41.1458 196.937C41.1348 197.143 41.1233 197.351 41.1113 197.559ZM41.2266 195.068L40.7607 195.054C40.7674 194.845 40.7731 194.639 40.7778 194.434L41.244 194.445C41.2393 194.651 41.2335 194.859 41.2266 195.068ZM40.785 192.579C40.781 192.37 40.7752 192.164 40.7676 191.962L41.2338 191.944C41.2414 192.149 41.2471 192.358 41.2509 192.57L40.785 192.579ZM40.6271 190.123C40.601 189.915 40.5714 189.713 40.5382 189.518L40.9976 189.44C41.0322 189.641 41.0628 189.85 41.0896 190.065L40.6271 190.123ZM40.0503 187.784C39.9718 187.607 39.8788 187.436 39.7721 187.273L40.16 187.015C40.2812 187.199 40.3869 187.392 40.4761 187.594L40.0503 187.784ZM149.076 92.9685H148.61V92.3469H149.076V92.9685ZM149.076 90.4821H148.61V89.8605H149.076V90.4821ZM149.076 87.9958H148.61V87.3742H149.076V87.9958ZM149.076 85.5094H148.61V84.8878H149.076V85.5094ZM149.076 83.0231H148.61V82.4015H149.076V83.0231ZM149.076 80.5367H148.61V79.9151H149.076V80.5367ZM149.076 78.0503H148.61V77.4287H149.076V78.0503ZM149.076 75.564H148.61V74.9424H149.076V75.564ZM149.076 73.0776H148.61V72.456H149.076V73.0776ZM149.076 70.5912H148.61V69.9697H149.076V70.5912ZM149.076 68.1049H148.61V67.4833H149.076V68.1049ZM149.076 65.6185H148.61V64.9969H149.076V65.6185ZM149.076 63.1322H148.61V62.5106H149.076V63.1322ZM149.076 60.6458H148.61V60.0242H149.076V60.6458ZM149.076 58.1594H148.61V57.5379H149.076V58.1594ZM149.076 55.6731H148.61V55.0515H149.076V55.6731ZM149.076 53.1867H148.61V52.8915H149.076V53.1867Z" fill="#A0A9AF"/>
<path d="M138.646 112.422H138.18V59.5816H126.241L149.585 31.3033L172.929 59.5816H160.99V79.5822H160.524V59.1154H171.94L149.585 32.0355L127.23 59.1154H138.646V112.422ZM118.217 111.424H117.751V80.0487H114.46L120.882 72.2698L127.304 80.0487H124.013V91.3843H123.547V79.5825H126.315L120.882 73.002L115.449 79.5825H118.217V111.424Z" fill="#A0A9AF"/>
<path d="M24.5291 290.185H375.436V290.651H24.5291V290.185Z" fill="#103050"/>
<path d="M203.309 236.299C206.325 236.297 209.302 236.976 212.019 238.285C214.735 239.594 217.121 241.501 218.998 243.861V126.662C218.998 119.509 213.199 110.427 206.046 110.427V110.062C198.892 110.062 193.094 119.509 193.094 126.662V239.095C196.185 237.26 199.715 236.294 203.31 236.299H203.309Z" fill="url(#paint0_linear_1_241)"/>
<path d="M205.025 234.84C199.897 234.84 194.979 236.877 191.352 240.503C187.726 244.13 185.689 249.048 185.689 254.176V260.743H224.363V254.176C224.363 251.637 223.862 249.123 222.891 246.776C221.919 244.43 220.495 242.299 218.699 240.503C216.903 238.708 214.772 237.283 212.425 236.311C210.079 235.34 207.565 234.84 205.025 234.84Z" fill="url(#paint1_linear_1_241)"/>
<path d="M228.012 255.437L273.129 242.03C273.129 242.03 271.296 235.867 268.711 230.884C262.988 219.433 226.632 215.511 226.632 161.387C226.632 152.503 223.603 144.82 219.201 141.146V236.596C219.201 236.596 226.565 241.704 228.012 255.437Z" fill="url(#paint2_linear_1_241)"/>
<path d="M182.106 256.896L136.989 243.489C136.989 243.489 138.822 237.326 141.407 232.344C147.13 220.892 183.487 216.97 183.487 162.846C183.487 153.963 186.515 146.279 190.917 142.605V238.056C190.917 238.056 183.553 243.163 182.106 256.896Z" fill="url(#paint3_linear_1_241)"/>
<path d="M221.423 270.471H185.62V262.334H186.086V270.005H220.957V262.79H221.423V270.471ZM173.717 193.984H173.251V111.819C173.224 100.178 175.005 88.604 178.531 77.5101C182.569 64.89 194.474 37.2246 203.543 37.2246C207.397 37.2246 212.022 41.9471 217.29 51.2613C222.915 61.2068 226.905 72.1654 227.994 75.2876C232.119 87.1962 234.208 99.7149 234.171 112.318V192.985H233.705V112.317C233.741 99.767 231.662 87.3003 227.554 75.4412C222.261 60.2666 211.499 37.6908 203.543 37.6908C195.218 37.6908 183.434 63.7177 178.975 77.6522C175.464 88.7001 173.69 100.226 173.717 111.819L173.717 193.984ZM173.219 254.288H173.685V267.802H173.219V254.288ZM154.11 248.664H154.576V267.802H154.11V248.664ZM154.576 216.312H154.11V119.718H171.963V120.184H154.576V216.312Z" fill="#103050"/>
<path d="M172.195 116.312H154.11V109.718C154.11 101.617 160.745 91.2958 163.897 91.2958C167.05 91.2958 173.685 101.617 173.685 109.718V113.912H173.219V109.718C173.219 101.542 166.53 91.762 163.897 91.762C161.264 91.762 154.576 101.542 154.576 109.718V115.845H172.195V116.312ZM180.306 254.512L134.966 241.039L135.033 240.815C135.051 240.753 136.902 234.574 139.467 229.628C141.056 226.449 144.879 223.899 149.72 220.671C162.383 212.224 181.52 199.46 181.52 160.238C181.52 151.513 184.399 143.689 189.034 139.819L189.332 140.177C184.801 143.96 181.987 151.647 181.987 160.238C181.987 199.709 162.725 212.557 149.978 221.058C145.195 224.249 141.417 226.769 139.882 229.84C137.611 234.219 135.902 239.576 135.548 240.725L180.439 254.065L180.306 254.512ZM252.697 248.664H253.163V267.802H252.697V248.664ZM233.589 255.992H234.055V268.599H233.589V255.992ZM227.457 254.512L227.324 254.065L272.216 240.725C271.861 239.576 270.153 234.219 267.883 229.843C266.346 226.769 262.568 224.249 257.785 221.058C245.039 212.557 225.777 199.709 225.777 160.238C225.777 151.647 222.962 143.959 218.43 140.176L218.729 139.818C223.364 143.687 226.243 151.512 226.243 160.238C226.243 199.46 245.381 212.224 258.044 220.67C262.885 223.899 266.708 226.449 268.298 229.631C270.862 234.574 272.713 240.753 272.731 240.815L272.798 241.039L227.457 254.512ZM190.818 236.746H190.351V131.089C190.351 118.64 196.142 108.635 203.533 108.31C203.579 108.31 203.614 108.311 203.649 108.313L203.715 108.316C203.779 108.311 203.844 108.314 203.908 108.325C207.463 108.483 210.781 110.931 213.254 115.221C215.714 119.491 217.069 125.126 217.069 131.089V142.898H216.603V131.089C216.603 119.088 210.89 109.085 203.868 108.79L203.82 108.783C203.797 108.78 203.774 108.78 203.751 108.781L203.715 108.783C203.684 108.782 203.653 108.781 203.621 108.779C203.595 108.777 203.57 108.776 203.543 108.776C200.155 108.925 196.965 111.296 194.571 115.452C192.151 119.654 190.818 125.207 190.818 131.089V236.746Z" fill="#103050"/>
<path d="M216.603 142.898H217.069V234.446H216.603V142.898ZM224.517 260.435H182.904V254.204C182.904 243.983 191.625 235.875 200.056 233.941L200.16 234.396C191.907 236.289 183.37 244.215 183.37 254.204V259.969H224.051V254.204C224.051 243.375 213.76 234.602 204.559 233.994L204.59 233.528C213.997 234.151 224.518 243.125 224.518 254.204L224.517 260.435ZM179.337 281.178H148.418L154.247 269.205H173.508L179.337 281.178ZM149.164 280.712H178.592L173.217 269.671H154.539L149.164 280.712ZM258.97 281.178H227.847L233.676 269.205H253.141L258.97 281.178ZM228.593 280.712H258.225L252.849 269.671H233.967L228.593 280.712Z" fill="#103050"/>
<path d="M232.007 280.945H232.473V289.651H232.007V280.945ZM254.791 280.945H255.257V289.651H254.791V280.945ZM152.68 280.945H153.146V289.651H152.68V280.945ZM175.464 280.945H175.93V289.651H175.464V280.945ZM212.547 134.024L212.179 133.631C211.094 132.472 209.783 131.547 208.326 130.916C206.87 130.284 205.299 129.957 203.711 129.957C202.123 129.957 200.552 130.284 199.095 130.916C197.638 131.547 196.327 132.472 195.242 133.631L194.874 134.024L194.839 133.487C194.826 133.293 194.819 133.099 194.818 132.905C194.818 130.547 195.755 128.285 197.423 126.617C199.09 124.949 201.352 124.012 203.711 124.012C206.069 124.012 208.331 124.949 209.999 126.617C211.666 128.285 212.603 130.547 212.603 132.905C212.603 133.101 212.595 133.294 212.582 133.487L212.547 134.024ZM203.711 129.491C206.859 129.497 209.881 130.728 212.137 132.922V132.905C212.137 130.67 211.249 128.527 209.669 126.947C208.089 125.366 205.945 124.479 203.711 124.479C201.476 124.479 199.332 125.366 197.752 126.947C196.172 128.527 195.284 130.67 195.284 132.905V132.922C197.541 130.728 200.563 129.497 203.711 129.491ZM192.725 119.871L192.447 119.497C195.621 117.144 199.452 115.843 203.402 115.779C207.352 115.714 211.224 116.888 214.472 119.136L214.207 119.52C211.038 117.327 207.262 116.182 203.41 116.245C199.557 116.308 195.821 117.576 192.725 119.871ZM218.58 172.411H226.877V172.877H218.58V172.411ZM218.58 176.881H227.303V177.347H218.58V176.881ZM180.394 176.881H189.183V177.347H180.394V176.881ZM180.958 172.411H189.183V172.877H180.958V172.411ZM193.067 186.01H196.707V186.476H193.067V186.01ZM193.067 190.586H196.707V191.053H193.067V190.586ZM193.067 195.162H196.707V195.628H193.067V195.162ZM193.067 199.738H196.707V200.205H193.067V199.738ZM193.067 204.315H196.707V204.781H193.067V204.315ZM211.576 186.01H215.216V186.476H211.576V186.01ZM211.576 190.586H215.216V191.053H211.576V190.586ZM211.576 195.162H215.216V195.628H211.576V195.162ZM211.576 199.738H215.216V200.205H211.576V199.738ZM211.576 204.315H215.216V204.781H211.576V204.315ZM197.883 178.8C197.661 178.8 197.445 178.734 197.261 178.611C197.077 178.488 196.934 178.314 196.849 178.109C196.764 177.905 196.742 177.68 196.785 177.463C196.829 177.246 196.935 177.046 197.092 176.89C197.248 176.733 197.447 176.627 197.664 176.584C197.881 176.54 198.106 176.563 198.311 176.647C198.515 176.732 198.69 176.875 198.813 177.059C198.936 177.243 199.002 177.46 199.002 177.681C199.001 177.978 198.883 178.262 198.674 178.472C198.464 178.682 198.179 178.799 197.883 178.8ZM197.883 177.028C197.754 177.028 197.627 177.067 197.52 177.138C197.413 177.21 197.329 177.312 197.28 177.431C197.23 177.55 197.217 177.682 197.243 177.808C197.268 177.935 197.33 178.051 197.421 178.142C197.512 178.234 197.629 178.296 197.755 178.321C197.882 178.346 198.013 178.333 198.132 178.284C198.252 178.235 198.354 178.151 198.425 178.044C198.497 177.936 198.535 177.81 198.535 177.681C198.535 177.508 198.466 177.342 198.344 177.22C198.222 177.097 198.056 177.029 197.883 177.028ZM197.883 211.964C197.661 211.964 197.445 211.898 197.261 211.775C197.077 211.652 196.934 211.477 196.849 211.273C196.764 211.068 196.742 210.843 196.785 210.626C196.829 210.409 196.935 210.21 197.092 210.053C197.248 209.897 197.447 209.79 197.664 209.747C197.881 209.704 198.106 209.726 198.311 209.811C198.515 209.896 198.69 210.039 198.813 210.223C198.936 210.407 199.002 210.623 199.002 210.845C199.001 211.141 198.883 211.426 198.674 211.635C198.464 211.845 198.179 211.963 197.883 211.964ZM197.883 210.192C197.754 210.192 197.627 210.23 197.52 210.302C197.413 210.374 197.329 210.476 197.28 210.595C197.23 210.714 197.217 210.845 197.243 210.972C197.268 211.099 197.33 211.215 197.421 211.306C197.512 211.397 197.629 211.46 197.755 211.485C197.882 211.51 198.013 211.497 198.132 211.448C198.252 211.398 198.354 211.315 198.425 211.207C198.497 211.1 198.535 210.974 198.535 210.845C198.535 210.672 198.466 210.506 198.344 210.383C198.222 210.261 198.056 210.192 197.883 210.192Z" fill="#103050"/>
<path d="M197.65 178.567H198.116V210.066H197.65V178.567ZM209.499 178.8C209.278 178.8 209.062 178.734 208.878 178.611C208.694 178.488 208.55 178.314 208.466 178.109C208.381 177.905 208.359 177.68 208.402 177.463C208.445 177.246 208.552 177.046 208.708 176.89C208.865 176.733 209.064 176.627 209.281 176.584C209.498 176.54 209.723 176.563 209.927 176.647C210.132 176.732 210.307 176.875 210.43 177.059C210.553 177.243 210.618 177.46 210.618 177.681C210.618 177.978 210.5 178.262 210.29 178.472C210.08 178.682 209.796 178.8 209.499 178.8ZM209.499 177.028C209.37 177.028 209.244 177.067 209.137 177.138C209.029 177.21 208.946 177.312 208.896 177.431C208.847 177.55 208.834 177.682 208.859 177.808C208.884 177.935 208.947 178.051 209.038 178.142C209.129 178.234 209.245 178.296 209.372 178.321C209.499 178.346 209.63 178.333 209.749 178.284C209.868 178.235 209.97 178.151 210.042 178.044C210.114 177.936 210.152 177.81 210.152 177.681C210.152 177.508 210.083 177.342 209.961 177.22C209.838 177.097 209.672 177.028 209.499 177.028ZM209.499 211.964C209.278 211.964 209.062 211.898 208.878 211.775C208.694 211.652 208.55 211.477 208.466 211.273C208.381 211.068 208.359 210.843 208.402 210.626C208.445 210.409 208.552 210.21 208.708 210.054C208.865 209.897 209.064 209.79 209.281 209.747C209.498 209.704 209.723 209.726 209.927 209.811C210.132 209.896 210.307 210.039 210.43 210.223C210.553 210.407 210.618 210.623 210.618 210.845C210.618 211.141 210.5 211.426 210.29 211.635C210.08 211.845 209.796 211.963 209.499 211.964ZM209.499 210.192C209.37 210.192 209.244 210.23 209.137 210.302C209.029 210.374 208.946 210.476 208.896 210.595C208.847 210.714 208.834 210.845 208.859 210.972C208.884 211.099 208.947 211.215 209.038 211.306C209.129 211.397 209.245 211.46 209.372 211.485C209.499 211.51 209.63 211.497 209.749 211.448C209.868 211.398 209.97 211.315 210.042 211.207C210.114 211.1 210.152 210.974 210.152 210.845C210.152 210.672 210.083 210.506 209.961 210.383C209.838 210.261 209.672 210.192 209.499 210.192Z" fill="#103050"/>
<path d="M209.266 178.567H209.732V210.066H209.266V178.567ZM230.152 85.9085C201.533 79.034 177.738 85.8361 177.501 85.9054L177.37 85.4581C177.608 85.3882 201.516 78.5504 230.261 85.455L230.152 85.9085ZM179.455 79.3243L179.324 78.8767C179.324 78.8767 179.532 78.8158 179.933 78.7114L180.05 79.1624C179.851 79.2135 179.653 79.2677 179.455 79.3243ZM226.792 79.0004C226.59 78.9549 226.389 78.9101 226.187 78.8662L226.286 78.4105C226.489 78.4549 226.692 78.5 226.895 78.5457L226.792 79.0004ZM181.857 78.7276L181.755 78.2729C181.948 78.2296 182.151 78.185 182.365 78.1392L182.462 78.5948C182.25 78.6404 182.048 78.6847 181.857 78.7276ZM224.366 78.4854C224.163 78.4448 223.96 78.4051 223.757 78.3661L223.846 77.9083C224.049 77.9477 224.253 77.9877 224.457 78.0283L224.366 78.4854ZM184.286 78.2259L184.199 77.7681C184.398 77.7302 184.602 77.6921 184.812 77.6538L184.896 78.1122C184.687 78.1503 184.484 78.1882 184.286 78.2259ZM221.927 78.0298C221.723 77.9942 221.52 77.9593 221.316 77.9251L221.394 77.4654C221.598 77.4998 221.802 77.5348 222.007 77.5705L221.927 78.0298ZM186.729 77.7967L186.655 77.3361C186.856 77.3036 187.062 77.2711 187.27 77.2385L187.342 77.6994C187.134 77.7316 186.93 77.7639 186.729 77.7964V77.7967ZM219.479 77.6332C219.274 77.6026 219.069 77.5725 218.865 77.5431L218.931 77.0819C219.136 77.1113 219.342 77.1414 219.548 77.172L219.479 77.6332ZM189.184 77.4312L189.121 76.9694C189.324 76.9418 189.53 76.9145 189.739 76.8873L189.799 77.3498C189.591 77.3767 189.386 77.4037 189.184 77.4312ZM217.021 77.2951C216.815 77.2694 216.61 77.2443 216.406 77.2199L216.461 76.7568C216.666 76.7815 216.872 76.8067 217.079 76.8326L217.021 77.2951ZM191.646 77.1273L191.595 76.6639C191.799 76.6411 192.006 76.6186 192.214 76.5964L192.263 77.0601C192.055 77.0821 191.85 77.1047 191.646 77.1273ZM214.556 77.0154C214.35 76.9945 214.144 76.9742 213.938 76.9545L213.983 76.4905C214.189 76.5101 214.396 76.5305 214.603 76.5517L214.556 77.0154ZM194.116 76.8811L194.075 76.4168C194.28 76.3988 194.487 76.3812 194.696 76.364L194.734 76.8289C194.526 76.8459 194.32 76.8633 194.116 76.8811ZM212.085 76.7932C211.878 76.7772 211.672 76.7617 211.466 76.7466L211.5 76.2819C211.706 76.2968 211.913 76.3124 212.121 76.3285L212.085 76.7932ZM196.59 76.6928L196.56 76.2275C196.766 76.2143 196.973 76.2014 197.182 76.189L197.209 76.6546C197.001 76.6668 196.795 76.6795 196.59 76.6928ZM209.609 76.6288C209.402 76.6174 209.196 76.6066 208.99 76.5964L209.013 76.1309C209.219 76.141 209.427 76.1518 209.635 76.1632L209.609 76.6288ZM199.068 76.561L199.049 76.0948C199.255 76.0865 199.462 76.0785 199.671 76.0709L199.688 76.5368C199.48 76.5442 199.274 76.5523 199.068 76.561ZM207.13 76.5209C206.923 76.5143 206.717 76.5083 206.51 76.5029L206.523 76.0367C206.729 76.0423 206.937 76.0484 207.145 76.055L207.13 76.5209ZM201.549 76.4852L201.54 76.019C201.746 76.015 201.954 76.0117 202.162 76.009L202.169 76.4752C201.961 76.4779 201.754 76.4812 201.549 76.4852ZM204.65 76.4696C204.442 76.468 204.236 76.4667 204.03 76.4659L204.031 75.9997C204.238 76.0005 204.446 76.0019 204.654 76.0038L204.65 76.4696ZM232.432 97.654C200.71 90.0343 175.189 97.5732 174.935 97.6506L174.799 97.2043C175.055 97.1269 200.69 89.5501 232.541 97.2009L232.432 97.654ZM230.903 104.029L230.537 103.942L230.645 103.489L231.012 103.576L230.903 104.029ZM176.463 104.026L176.328 103.58C176.328 103.58 176.535 103.517 176.935 103.409L177.056 103.859C176.858 103.912 176.66 103.968 176.463 104.026ZM228.723 103.528C228.521 103.484 228.319 103.44 228.117 103.397L228.214 102.941C228.417 102.984 228.62 103.028 228.823 103.073L228.723 103.528ZM178.859 103.407L178.752 102.953C178.945 102.908 179.147 102.861 179.361 102.813L179.463 103.268C179.251 103.316 179.05 103.362 178.859 103.407ZM226.294 103.021C226.09 102.981 225.887 102.942 225.685 102.903L225.773 102.445C225.976 102.484 226.18 102.524 226.384 102.564L226.294 103.021ZM181.283 102.88L181.191 102.423C181.389 102.383 181.593 102.343 181.802 102.302L181.892 102.76C181.683 102.8 181.48 102.84 181.283 102.88ZM223.854 102.567C223.65 102.531 223.447 102.496 223.243 102.461L223.321 102.001C223.526 102.036 223.73 102.072 223.935 102.107L223.854 102.567ZM183.722 102.423L183.642 101.964C183.843 101.929 184.048 101.894 184.256 101.859L184.333 102.319C184.126 102.354 183.922 102.388 183.722 102.423ZM221.406 102.164C221.201 102.132 220.997 102.102 220.792 102.071L220.861 101.61C221.066 101.64 221.271 101.671 221.477 101.703L221.406 102.164ZM186.172 102.028L186.103 101.567C186.305 101.537 186.511 101.507 186.719 101.477L186.785 101.938C186.578 101.968 186.374 101.998 186.172 102.028ZM218.949 101.813C218.744 101.786 218.539 101.759 218.334 101.733L218.393 101.271C218.598 101.297 218.804 101.323 219.011 101.351L218.949 101.813ZM188.63 101.69L188.572 101.228C188.776 101.202 188.982 101.177 189.191 101.152L189.246 101.615C189.039 101.64 188.833 101.665 188.63 101.69ZM216.486 101.513C216.28 101.49 216.075 101.468 215.869 101.447L215.918 100.983C216.124 101.005 216.331 101.027 216.537 101.05L216.486 101.513ZM191.096 101.408L191.048 100.944C191.253 100.923 191.46 100.903 191.668 100.882L191.713 101.346C191.506 101.366 191.3 101.387 191.096 101.408ZM214.017 101.265C213.811 101.247 213.604 101.229 213.399 101.212L213.438 100.747C213.644 100.765 213.851 100.783 214.059 100.801L214.017 101.265ZM193.567 101.179L193.529 100.715C193.735 100.698 193.942 100.682 194.15 100.666L194.186 101.131C193.978 101.146 193.772 101.163 193.567 101.179ZM211.543 101.069C211.336 101.055 211.13 101.041 210.924 101.028L210.954 100.563C211.16 100.576 211.368 100.59 211.575 100.604L211.543 101.069ZM196.043 101.003L196.015 100.538C196.221 100.525 196.428 100.513 196.637 100.502L196.662 100.967C196.455 100.979 196.248 100.991 196.043 101.003ZM209.066 100.924L208.446 100.896L208.466 100.43L209.088 100.459L209.066 100.924ZM198.522 100.879L198.503 100.413C198.71 100.405 198.917 100.397 199.126 100.39L199.142 100.856L198.522 100.879ZM206.586 100.831C206.379 100.825 206.172 100.82 205.966 100.815L205.976 100.349C206.183 100.354 206.391 100.359 206.599 100.364L206.586 100.831ZM201.003 100.807L200.994 100.341L201.617 100.33L201.623 100.796L201.003 100.807ZM204.105 100.788C203.897 100.786 203.69 100.785 203.484 100.785L203.485 100.319C203.692 100.319 203.899 100.32 204.108 100.322L204.105 100.788Z" fill="#103050"/>
<path d="M178.088 95.9956L177.685 95.7616L184.643 83.7658L190.637 93.2258L190.243 93.4751L184.661 84.6646L178.088 95.9956ZM205.447 94.2614L205.051 94.0143L212.012 82.8819L218.525 93.0039L218.133 93.2563L212.017 83.7525L205.447 94.2614ZM191.167 94.7879L190.766 94.5507L197.725 82.7691L204.243 93.1158L203.849 93.3641L197.738 83.6639L191.167 94.7879ZM219.122 94.7011L218.739 94.4357L225.684 84.4169L230.013 89.9071L229.647 90.1959L225.708 85.2005L219.122 94.7011ZM154.343 113.388H173.452V113.854H154.343V113.388ZM156.589 116.234H157.055V119.641H156.589V116.234Z" fill="#103050"/>
<path d="M136.933 236.961L137.061 236.513L180.856 248.943L180.728 249.391L136.933 236.961Z" fill="#103050"/>
<path d="M226.963 248.943L270.758 236.512L270.885 236.96L227.09 249.392L226.963 248.943Z" fill="#103050"/>
<path d="M188.706 228.671H188.084V228.204H188.706V228.671ZM186.219 228.671H185.598V228.204H186.219V228.671ZM183.733 228.671H183.111V228.204H183.733V228.671ZM181.247 228.671H180.625V228.204H181.247V228.671ZM178.76 228.671H178.139V228.204H178.76V228.671ZM176.274 228.671H175.652V228.204H176.274V228.671ZM173.788 228.671H173.166V228.204H173.788V228.671ZM171.301 228.671H170.68V228.204H171.301V228.671ZM168.815 228.671H168.193V228.204H168.815V228.671ZM166.328 228.671H165.707V228.204H166.328V228.671ZM163.842 228.671H163.22V228.204H163.842V228.671ZM161.356 228.671H160.734V228.204H161.356V228.671ZM158.869 228.671H158.248V228.204H158.869V228.671ZM156.383 228.671H155.761V228.204H156.383V228.671ZM153.896 228.671H153.275V228.204H153.896V228.671ZM151.41 228.671H150.789V228.204H151.41V228.671ZM148.924 228.671H148.302V228.204H148.924V228.671ZM146.437 228.671H145.816V228.204H146.437V228.671ZM143.951 228.671H143.329V228.204H143.951V228.671ZM141.465 228.671H140.843V228.204H141.465V228.671ZM265.609 228.671H264.987V228.204H265.609V228.671ZM263.122 228.671H262.501V228.204H263.122V228.671ZM260.636 228.671H260.014V228.204H260.636V228.671ZM258.149 228.671H257.528V228.204H258.149V228.671ZM255.663 228.671H255.041V228.204H255.663V228.671ZM253.177 228.671H252.555V228.204H253.177V228.671ZM250.69 228.671H250.069V228.204H250.69V228.671ZM248.204 228.671H247.582V228.204H248.204V228.671ZM245.717 228.671H245.096V228.204H245.717V228.671ZM243.231 228.671H242.61V228.204H243.231V228.671ZM240.745 228.671H240.123V228.204H240.745V228.671ZM238.258 228.671H237.637V228.204H238.258V228.671ZM235.772 228.671H235.15V228.204H235.772V228.671ZM233.286 228.671H232.664V228.204H233.286V228.671ZM230.799 228.671H230.178V228.204H230.799V228.671ZM228.313 228.671H227.691V228.204H228.313V228.671ZM225.826 228.671H225.205V228.204H225.826V228.671ZM223.34 228.671H222.718V228.204H223.34V228.671ZM220.854 228.671H220.232V228.204H220.854V228.671ZM218.367 228.671H217.746V228.204H218.367V228.671ZM207.936 120.765H207.806V120.299H207.936V120.765ZM205.941 120.765H205.319V120.299H205.941V120.765ZM203.454 120.765H202.833V120.299H203.454V120.765ZM200.968 120.765H200.346V120.299H200.968V120.765ZM201.818 142.177H206.465V142.643H201.818V142.177ZM192.319 48.6531L192.24 48.1937L203.699 46.227L214.638 48.1941L214.555 48.6528L203.697 46.7004L192.319 48.6531ZM156.512 133.58H172.195V134.047H156.512V133.58ZM156.512 159.021H172.195V159.487H156.512V159.021ZM156.512 138.808H172.195V139.274H156.512V138.808ZM254.318 216.312H253.852V120.184H236.465V119.718H254.318V216.312ZM254.318 116.312H236.233V115.846H253.852V109.718C253.852 101.542 247.164 91.7619 244.531 91.7619C241.897 91.7619 235.209 101.542 235.209 109.718V113.912H234.743V109.718C234.743 101.617 241.378 91.2957 244.531 91.2957C247.684 91.2957 254.318 101.617 254.318 109.718V116.312Z" fill="#103050"/>
<path d="M234.976 113.388H254.085V113.854H234.976V113.388ZM236.233 133.58H251.915V134.047H236.233V133.58ZM236.233 159.021H251.915V159.487H236.233V159.021ZM236.233 138.808H251.915V139.274H236.233V138.808ZM171.498 224.657C170.694 224.657 169.908 224.418 169.239 223.971C168.57 223.524 168.049 222.889 167.742 222.146C167.434 221.403 167.353 220.586 167.51 219.797C167.667 219.008 168.054 218.283 168.623 217.715C169.192 217.146 169.916 216.759 170.705 216.602C171.494 216.445 172.312 216.526 173.055 216.833C173.798 217.141 174.433 217.662 174.88 218.331C175.326 218.999 175.565 219.786 175.565 220.59C175.564 221.668 175.135 222.702 174.373 223.464C173.61 224.227 172.576 224.655 171.498 224.657ZM171.498 216.989C170.786 216.989 170.09 217.201 169.498 217.596C168.906 217.992 168.445 218.554 168.172 219.212C167.9 219.87 167.829 220.594 167.967 221.292C168.106 221.99 168.449 222.632 168.953 223.135C169.456 223.639 170.098 223.982 170.796 224.121C171.494 224.26 172.218 224.188 172.876 223.916C173.534 223.643 174.096 223.182 174.492 222.59C174.888 221.998 175.099 221.302 175.099 220.59C175.098 219.635 174.718 218.72 174.043 218.045C173.368 217.37 172.453 216.991 171.498 216.99V216.989ZM164.373 268.219C163.982 268.219 163.6 268.103 163.276 267.886C162.951 267.669 162.697 267.361 162.548 267C162.398 266.639 162.359 266.241 162.435 265.858C162.512 265.475 162.7 265.123 162.976 264.846C163.252 264.57 163.604 264.382 163.988 264.306C164.371 264.23 164.768 264.269 165.129 264.418C165.49 264.568 165.799 264.821 166.016 265.146C166.233 265.471 166.349 265.853 166.349 266.244C166.348 266.767 166.14 267.27 165.77 267.64C165.399 268.01 164.897 268.219 164.373 268.219ZM164.373 264.734C164.075 264.734 163.783 264.823 163.535 264.988C163.286 265.154 163.093 265.39 162.979 265.666C162.864 265.942 162.834 266.245 162.893 266.538C162.951 266.831 163.095 267.1 163.306 267.311C163.517 267.522 163.786 267.666 164.079 267.724C164.372 267.782 164.675 267.752 164.951 267.638C165.227 267.524 165.462 267.33 165.628 267.082C165.794 266.834 165.883 266.542 165.883 266.244C165.882 265.843 165.723 265.46 165.44 265.177C165.157 264.894 164.773 264.734 164.373 264.734ZM238.644 223.611H227.374V217.917H238.644V223.611ZM227.84 223.145H238.178V218.384H227.84V223.145Z" fill="#103050"/>
<path d="M163.043 252.536H163.509V264.927H163.043V252.536ZM165.147 252.536H165.613V264.927H165.147V252.536ZM155.235 272.167H172.544V272.634H155.235V272.167ZM243.6 268.219C243.209 268.219 242.827 268.104 242.502 267.887C242.177 267.669 241.924 267.361 241.774 267C241.625 266.639 241.585 266.242 241.662 265.858C241.738 265.475 241.926 265.123 242.202 264.847C242.478 264.57 242.831 264.382 243.214 264.306C243.597 264.23 243.994 264.269 244.355 264.418C244.716 264.568 245.025 264.821 245.242 265.146C245.459 265.471 245.575 265.853 245.575 266.244C245.575 266.767 245.366 267.27 244.996 267.64C244.626 268.01 244.123 268.219 243.6 268.219ZM243.6 264.734C243.301 264.734 243.009 264.822 242.761 264.988C242.513 265.154 242.319 265.39 242.205 265.666C242.091 265.942 242.061 266.245 242.119 266.538C242.177 266.831 242.321 267.1 242.532 267.311C242.743 267.522 243.012 267.666 243.305 267.724C243.598 267.782 243.901 267.753 244.177 267.638C244.453 267.524 244.689 267.331 244.854 267.082C245.02 266.834 245.109 266.542 245.109 266.244C245.108 265.843 244.949 265.46 244.666 265.177C244.383 264.894 244 264.735 243.6 264.734Z" fill="#103050"/>
<path d="M242.269 252.536H242.735V264.927H242.269V252.536ZM244.373 252.536H244.84V264.927H244.373V252.536ZM234.461 272.167H251.77V272.634H234.461V272.167Z" fill="#103050"/>
<path d="M111.676 147.883C111.911 147.724 124.056 143.299 122.077 137.887C121.457 136.192 119.572 136.673 119.015 135.151C118.459 133.628 122.466 132.29 121.374 129.304C119.586 124.418 113.494 124.776 113.494 124.776C113.494 124.776 116.168 121.078 113.013 117.316C109.859 113.554 107.048 116.308 107.048 116.308C107.048 116.308 102.15 110.142 91.9036 115.51C82.1641 120.612 87.2621 127.184 88.6847 129.779C89.4623 131.197 89.6376 133.19 84.5175 135.063C82.1191 135.94 79.1603 135.716 76.07 136.846C72.9798 137.976 70.3582 140.818 71.4214 143.724C72.4847 146.63 75.2937 147.59 75.2937 147.59C75.2937 147.59 69.2794 149.162 71.1355 154.236C72.9916 159.31 81.9954 158.474 87.9916 156.281C93.9878 154.087 103.159 146.704 103.159 146.704L111.676 147.883Z" fill="url(#paint4_linear_1_241)"/>
<path d="M130.979 143.21L133.365 141.871L134.1 142.216L131.722 143.956L130.979 143.21Z" fill="#FFD3B7"/>
<path d="M133.351 142.231L133.366 141.871L135.512 141.452L135.673 141.74L134.101 142.216L133.351 142.231Z" fill="#FFD3B7"/>
<path d="M138.504 166.55L121.933 161.203L134.533 139.752L152.348 141.535L138.504 166.55ZM122.63 160.937L138.282 165.989L151.597 141.929L134.784 140.246L122.63 160.937Z" fill="#103050"/>
<path d="M127.569 205.454L128.62 206.825L128.971 208.099L127.993 207.663L127.352 206.665L127.569 205.454Z" fill="#FFD3B7"/>
<path d="M128.253 209.104L127.594 208.431L127.705 210.078L128.639 210.213L128.966 209.536L128.253 209.104Z" fill="url(#paint5_linear_1_241)"/>
<path d="M128.924 208.773C128.492 208.532 128.108 208.214 127.792 207.834C128.097 207.27 129.504 207.903 130.579 208.831C130.743 208.972 130.902 209.099 131.057 209.213C130.571 209.315 129.76 209.162 128.924 208.773Z" fill="#FFD3B7"/>
<path d="M127.876 207.708C128.265 208.062 128.708 208.353 129.189 208.569C130.026 208.958 130.365 209.157 130.851 209.055C131.937 209.859 133.226 210.009 133.049 210.391C132.846 210.827 131.822 210.696 130.102 210.136C128.295 209.547 127.586 208.779 127.572 208.299C127.562 208.182 127.585 208.064 127.638 207.96C127.692 207.855 127.774 207.768 127.876 207.708Z" fill="url(#paint6_linear_1_241)"/>
<path d="M97.079 158.48L105.333 158.977C105.333 158.977 124.121 168.874 126.322 177.158C128.741 185.637 128.75 207 128.75 207L127.474 207.068C127.474 207.068 123.092 198.93 122.03 193.002C121 187.249 121.745 178.851 121.745 178.851C121.745 178.851 106.85 180.078 100.146 169.399C96.1438 163.024 97.079 158.48 97.079 158.48V158.48Z" fill="url(#paint7_linear_1_241)"/>
<path d="M102.641 206.502L103.229 207.5L102.781 208.915L101.91 208.419L101.968 207.212L102.641 206.502Z" fill="#FFD3B7"/>
<path d="M102.068 209.748L101.479 209.014L101.427 210.664L102.344 210.891L102.736 210.249L102.068 209.748Z" fill="url(#paint8_linear_1_241)"/>
<path d="M102.768 209.485C102.362 209.204 102.012 208.849 101.735 208.44C102.095 207.908 103.432 208.677 104.41 209.706C104.559 209.863 104.706 210.005 104.849 210.134C104.354 210.187 103.563 209.955 102.768 209.485Z" fill="#FFD3B7"/>
<path d="M101.831 208.323C102.184 208.714 102.596 209.046 103.052 209.309C103.847 209.779 104.165 210.01 104.659 209.956C105.661 210.863 106.928 211.14 106.714 211.502C106.469 211.916 105.463 211.685 103.807 210.958C102.067 210.194 101.437 209.36 101.471 208.88C101.472 208.763 101.506 208.648 101.57 208.549C101.634 208.45 101.724 208.372 101.831 208.323L101.831 208.323Z" fill="url(#paint9_linear_1_241)"/>
<path d="M132.671 143.262L133.493 143.207L134.152 142.837C134.152 142.837 134.515 143.147 134.359 143.208C134.204 143.268 133.536 143.669 133.536 143.669L132.384 144.316L131.722 143.956L132.671 143.262Z" fill="#FFD3B7"/>
<path d="M132.384 144.316C132.384 144.316 131.592 144.16 130.539 144.904C129.486 145.648 129.517 144.462 129.517 144.462C129.955 143.991 130.446 143.571 130.979 143.21C131.581 142.872 132.384 144.316 132.384 144.316Z" fill="#FFD3B7"/>
<path d="M108.401 135.846C108.401 135.846 114.769 140.261 118.052 147.731C121.848 145.219 130.512 143.448 130.512 143.448L131.231 144.669C131.231 144.669 122.459 152.49 116.718 152.5C110.885 149.974 103.267 145.62 103.267 145.62L108.401 135.846Z" fill="url(#paint10_linear_1_241)"/>
<path d="M105.714 160.58L105.252 163.994C105.252 163.994 117.956 174.629 116.043 180.668C114.13 186.708 103.169 207.9 103.169 207.9L101.887 207.726C101.887 207.726 101.572 199.309 103.391 192.718C105.21 186.128 110.659 179.956 110.659 179.956C110.659 179.956 90.0292 176.12 91.9219 165.848C92.8552 158.358 97.2163 156.966 97.2163 156.966L105.714 160.58Z" fill="url(#paint11_linear_1_241)"/>
<path d="M107.368 159.516C107.595 156.845 108.216 154.222 109.213 151.733C110.848 147.618 111.851 142.232 110.337 138.607C108.417 134.01 103.314 133.542 97.8752 134.572C92.4365 135.602 88.67 142.328 89.2008 148.317C89.6847 153.772 92.4853 162.499 92.4853 162.499C92.4853 162.499 101.935 163.848 107.368 159.516Z" fill="url(#paint12_linear_1_241)"/>
<path d="M104.26 128.228C104.26 128.228 102.44 131.921 103.888 135.967C105.337 140.013 99.3922 136.779 99.3922 136.779C99.3922 136.779 98.5823 131.141 102.744 127.621C106.906 124.1 104.26 128.228 104.26 128.228Z" fill="url(#paint13_linear_1_241)"/>
<path d="M104.921 135.921C106.029 137.667 106.598 139.781 105.059 140.758C103.521 141.734 101.275 140.764 100.167 139.018C99.0588 137.272 99.0575 135.204 100.596 134.228C102.134 133.251 103.813 134.175 104.921 135.921Z" fill="url(#paint14_linear_1_241)"/>
<path d="M102.868 127.305C103.559 129.176 105.093 130.333 106.295 129.89C107.497 129.446 107.912 127.57 107.221 125.699C106.531 123.827 104.997 122.67 103.795 123.114C102.592 123.557 102.178 125.433 102.868 127.305Z" fill="url(#paint15_linear_1_241)"/>
<path d="M98.5519 123.048C98.8322 124.528 100.814 125.692 102.91 125.295C105.007 124.898 106.426 123.089 106.145 121.61C105.865 120.131 103.938 119.254 101.841 119.651C99.7447 120.048 98.2718 121.569 98.5519 123.048Z" fill="url(#paint16_linear_1_241)"/>
<path d="M101.94 126.329C102.017 126.734 102.315 127.019 102.606 126.964C102.897 126.909 103.071 126.535 102.994 126.129C102.917 125.722 102.619 125.438 102.328 125.493C102.036 125.548 101.863 125.922 101.94 126.329Z" fill="url(#paint17_linear_1_241)"/>
<path d="M115.812 177.764C114.756 173.971 112.4 170.895 110.61 168.983L110.951 168.664C112.776 170.615 115.18 173.755 116.261 177.639L115.812 177.764Z" fill="#103050"/>
<path d="M120.954 161.767L123.629 161.186L123.95 160.44L121.015 160.716L120.954 161.767Z" fill="#FFD3B7"/>
<path d="M123.379 160.927L123.629 161.186L125.513 160.077L125.443 159.754L123.95 160.441L123.379 160.927ZM121.272 160.007C121.272 160.007 120.783 160.649 119.502 160.79C118.22 160.931 119.029 161.8 119.029 161.8C119.67 161.862 120.316 161.851 120.954 161.767C121.629 161.621 121.272 160.007 121.272 160.007Z" fill="#FFD3B7"/>
<path d="M90.6233 144.029L90.0353 147.717C93.5401 153.377 97.9474 158.426 103.083 162.662C110.251 164.914 119.823 162.452 119.823 162.452L119.66 160.62C119.66 160.62 111.004 158.424 105.792 157.836C104.636 151.336 101.036 145.46 101.036 145.46L90.6233 144.029Z" fill="url(#paint18_linear_1_241)"/>
<path d="M107.449 158.282C106.973 158.127 106.479 158.034 105.98 158.003L105.795 157.992L105.764 157.81C104.949 153.047 101.049 146.226 101.009 146.158L101.413 145.926C101.453 145.994 105.299 152.718 106.191 157.552C106.678 157.591 107.158 157.69 107.619 157.849L107.449 158.282Z" fill="#103050"/>
<path d="M122.187 160.606L122.838 160.102L123.576 159.942C123.576 159.942 123.642 159.469 123.486 159.527C123.33 159.585 122.563 159.728 122.563 159.728L121.272 160.007L121.016 160.716L122.187 160.606Z" fill="#FFD3B7"/>
<path d="M134.919 163.362L130.292 155.522L137.219 154.268L135.968 149.444L136.419 149.327L137.796 154.637L131.034 155.861L135.321 163.125L134.919 163.362ZM136.921 148.768L136.883 148.303L143.484 147.769L142.089 143.689L142.53 143.538L144.119 148.186L136.921 148.768Z" fill="#103050"/>
<path d="M135.95 149.611C135.668 149.611 135.396 149.5 135.195 149.301C134.994 149.103 134.879 148.833 134.875 148.55C134.872 148.267 134.979 147.995 135.175 147.791C135.371 147.587 135.639 147.468 135.922 147.461C136.205 147.453 136.479 147.557 136.685 147.75C136.892 147.944 137.014 148.21 137.025 148.493C137.037 148.775 136.936 149.051 136.746 149.26C136.556 149.469 136.291 149.594 136.009 149.61C135.989 149.611 135.97 149.611 135.95 149.611ZM135.953 147.932C135.942 147.932 135.931 147.932 135.92 147.933C135.8 147.939 135.685 147.981 135.589 148.052C135.493 148.124 135.42 148.223 135.38 148.336C135.34 148.449 135.334 148.572 135.364 148.688C135.394 148.804 135.457 148.909 135.546 148.989C135.635 149.07 135.746 149.122 135.865 149.139C135.984 149.156 136.105 149.138 136.213 149.086C136.322 149.034 136.412 148.951 136.473 148.848C136.535 148.745 136.564 148.626 136.558 148.506C136.55 148.351 136.482 148.205 136.37 148.098C136.257 147.991 136.108 147.932 135.953 147.931V147.932Z" fill="#103050"/>
<path d="M257.415 107.507L255.208 108.977L254.473 108.698L256.641 106.841L257.31 107.105L257.415 107.507Z" fill="#FFD3B7"/>
<path d="M255.195 108.629L255.208 108.977L253.166 109.541L252.989 109.275L254.473 108.698L255.195 108.629ZM255.776 107.582L254.986 107.696L254.377 108.102C254.377 108.102 254.003 107.829 254.149 107.76C254.295 107.69 254.91 107.253 254.91 107.253L255.958 106.665L256.641 106.841L255.776 107.582ZM257.415 107.507L258.708 106.73L258.31 105.759L256.848 107.112L257.415 107.507Z" fill="#FFD3B7"/>
<path d="M282.522 73.2855L284.396 75.7619C284.396 75.7619 282.313 89.9786 272.208 98.9161C269.849 103.046 257.391 107.628 257.391 107.628L256.157 106.558C256.157 106.558 263.373 99.0566 267.027 95.4293C268.212 89.7822 269.577 76.6806 269.776 76.8807C269.975 77.0809 282.522 73.2855 282.522 73.2855Z" fill="url(#paint19_linear_1_241)"/>
<path d="M309.254 115.599L309.672 118.218L309.112 118.77L308.327 116.025L309.254 115.599Z" fill="#FFD3B7"/>
<path d="M309.35 118.084L309.672 118.218L309.335 120.309L309.019 120.36L309.112 118.77L309.35 118.084ZM308.64 117.121L308.415 117.886L308.531 118.609C308.531 118.609 308.127 118.835 308.124 118.674C308.122 118.512 307.98 117.771 307.98 117.771L307.777 116.507L308.327 116.025L308.64 117.121ZM284.155 156.06L283.964 157.29L284.261 161.87L285.003 162.176L285.339 161.272L285.157 156.863L284.155 156.06Z" fill="#FFD3B7"/>
<path d="M284.728 161.367L284.123 161.331C284.123 161.331 281.929 161.55 280.777 162.171C280.732 162.197 280.697 162.236 280.677 162.284C280.657 162.331 280.653 162.384 280.666 162.433C280.679 162.483 280.709 162.527 280.749 162.558C280.79 162.59 280.84 162.607 280.891 162.607H285.339V161.132L284.728 161.367Z" fill="#46082B"/>
<path d="M293.994 157.206L293.803 158.437L294.1 163.017L294.842 163.323L295.178 162.419L294.995 158.009L293.994 157.206Z" fill="#FFD3B7"/>
<path d="M294.567 162.514L293.961 162.478C293.961 162.478 291.767 162.697 290.615 163.318C290.57 163.343 290.535 163.383 290.515 163.43C290.495 163.478 290.491 163.53 290.504 163.58C290.518 163.63 290.547 163.674 290.588 163.706C290.628 163.737 290.678 163.754 290.73 163.754H295.178V162.279L294.567 162.514Z" fill="#46082B"/>
<path d="M283.368 72.2163L287.555 71.5475C287.009 69.6715 285.996 66.3718 284.83 63.4615L282.757 63.7929C283.355 66.5581 283.561 69.3937 283.368 72.2163Z" fill="url(#paint20_linear_1_241)"/>
<path d="M283.079 101.352L282.041 132.877C282.041 132.877 283.672 154.03 283.672 157.486H285.525C285.525 157.486 286.896 142.249 285.97 133.977C287.526 123.819 289.639 103.394 289.639 103.394L283.079 101.352Z" fill="url(#paint21_linear_1_241)"/>
<path d="M291.686 102.479V134.024C291.686 134.024 293.316 155.177 293.316 158.632H295.17C295.17 158.632 296.541 143.396 295.614 135.123C297.171 124.966 298.706 100.2 298.706 100.2L291.686 102.479Z" fill="url(#paint22_linear_1_241)"/>
<path d="M286.371 105.465C286.371 105.465 288.197 107.649 292.576 108.944C296.956 110.239 294.354 97.4268 294.354 97.4268L284.999 98.4845L286.371 105.465Z" fill="url(#paint23_linear_1_241)"/>
<path d="M269.776 76.8808C269.776 76.8808 269.69 72.356 284.93 69.3512C300.171 66.3464 301.993 71.6097 301.993 71.6097C301.993 71.6097 305.739 95.6724 297.471 101.119C289.203 106.565 283.527 103.63 282.041 102.933C280.554 102.236 269.979 83.0778 269.776 76.8808Z" fill="url(#paint24_linear_1_241)"/>
<path d="M298.615 71.4499L301.576 70.9769C301.576 70.9769 312.07 81.4858 310.291 97.5107C311.511 102.107 309.458 116.048 309.458 116.048L307.548 116.592C307.548 116.592 304.926 104.648 304.981 99.4995C301.86 94.6461 298.407 81.3049 298.689 81.308C298.971 81.3111 298.615 71.4499 298.615 71.4499Z" fill="url(#paint25_linear_1_241)"/>
<path d="M284.006 69.4988C283.194 69.6569 282.385 69.8269 281.579 70.0085C281.579 70.0222 281.504 74.1825 284.418 73.7172C287.335 73.2513 288.713 68.7662 288.715 68.7603C287.299 68.9213 285.735 69.1613 284.006 69.4988Z" fill="#FFD3B7"/>
<path d="M276.337 53.3626C276.337 53.3626 276.02 51.1485 277.597 50.8965C279.175 50.6444 279.644 52.0076 279.862 53.3747C280.081 54.7419 279.52 57.5994 281.786 57.2376C284.052 56.8759 286.14 58.0162 286.571 60.7154C287.002 63.4147 273.797 65.5955 272.532 57.6727C272.056 54.6935 273.017 52.383 274.314 52.1757C275.611 51.9684 276.337 53.3626 276.337 53.3626Z" fill="url(#paint26_linear_1_241)"/>
<path d="M285.638 61.1153C285.575 61.1265 285.516 61.1526 285.466 61.1915C285.34 60.7828 285.143 60.3999 284.883 60.0608C284.478 60.6259 283.949 61.0897 283.335 61.4161C282.722 61.7425 282.041 61.9226 281.346 61.9423C281.305 62.2004 281.283 62.4612 281.281 62.7224C281.266 64.6208 282.242 66.1676 283.462 66.1772C284.681 66.1869 285.682 64.6556 285.697 62.7569C285.698 62.6876 285.693 62.6202 285.691 62.5518C285.749 62.5709 285.81 62.5765 285.87 62.568C286.158 62.522 286.339 62.1596 286.275 61.7584C286.21 61.3571 285.926 61.0696 285.638 61.1153Z" fill="url(#paint27_linear_1_241)"/>
<path d="M301.675 92.6887C300.406 89.0302 299.346 85.3027 298.499 81.5241L298.463 81.3668L298.914 81.2493C298.918 81.2655 298.932 81.3239 298.954 81.4209C299.796 85.1813 300.851 88.8908 302.114 92.5318L301.675 92.6887ZM283.975 73.9873C283.655 73.9943 283.337 73.9288 283.045 73.7955C282.754 73.6622 282.496 73.4647 282.291 73.2177L282.645 72.9144C282.854 73.1604 283.127 73.344 283.433 73.4451C283.739 73.5461 284.067 73.5607 284.382 73.4872C286.336 73.1749 287.581 70.9135 288.15 69.5929L288.578 69.7772C287.972 71.1858 286.63 73.6 284.455 73.9475C284.296 73.9733 284.136 73.9868 283.975 73.9873Z" fill="#C02800"/>
<defs>
<linearGradient id="paint0_linear_1_241" x1="165.798" y1="177.461" x2="234.025" y2="176.731" gradientUnits="userSpaceOnUse">
<stop stop-color="#D59445"/>
<stop offset="1" stop-color="#FFE0A2"/>
</linearGradient>
<linearGradient id="paint1_linear_1_241" x1="166.556" y1="248.306" x2="234.783" y2="247.576" gradientUnits="userSpaceOnUse">
<stop stop-color="#D59445"/>
<stop offset="1" stop-color="#FFE0A2"/>
</linearGradient>
<linearGradient id="paint2_linear_1_241" x1="258.933" y1="266.037" x2="234.61" y2="213.499" gradientUnits="userSpaceOnUse">
<stop stop-color="#F22003"/>
<stop offset="1" stop-color="#FF6130"/>
</linearGradient>
<linearGradient id="paint3_linear_1_241" x1="132.455" y1="198.508" x2="195.938" y2="199.967" gradientUnits="userSpaceOnUse">
<stop stop-color="#F22003"/>
<stop offset="1" stop-color="#FF6130"/>
</linearGradient>
<linearGradient id="paint4_linear_1_241" x1="112.166" y1="141.247" x2="46.4931" y2="125.193" gradientUnits="userSpaceOnUse">
<stop stop-color="#D59445"/>
<stop offset="1" stop-color="#FFE0A2"/>
</linearGradient>
<linearGradient id="paint5_linear_1_241" x1="128.941" y1="209.817" x2="127.39" y2="209.095" gradientUnits="userSpaceOnUse">
<stop stop-color="#671243"/>
<stop offset="1" stop-color="#2C0F1F"/>
</linearGradient>
<linearGradient id="paint6_linear_1_241" x1="133.263" y1="209.58" x2="127.593" y2="208.864" gradientUnits="userSpaceOnUse">
<stop stop-color="#671243"/>
<stop offset="1" stop-color="#2C0F1F"/>
</linearGradient>
<linearGradient id="paint7_linear_1_241" x1="130.096" y1="204.21" x2="104.952" y2="158.156" gradientUnits="userSpaceOnUse">
<stop stop-color="#F22003"/>
<stop offset="1" stop-color="#FF6130"/>
</linearGradient>
<linearGradient id="paint8_linear_1_241" x1="102.511" y1="210.501" x2="101.039" y2="209.63" gradientUnits="userSpaceOnUse">
<stop stop-color="#671243"/>
<stop offset="1" stop-color="#2C0F1F"/>
</linearGradient>
<linearGradient id="paint9_linear_1_241" x1="106.835" y1="210.691" x2="101.264" y2="209.42" gradientUnits="userSpaceOnUse">
<stop stop-color="#671243"/>
<stop offset="1" stop-color="#2C0F1F"/>
</linearGradient>
<linearGradient id="paint10_linear_1_241" x1="112.142" y1="139.504" x2="124.484" y2="152.574" gradientUnits="userSpaceOnUse">
<stop stop-color="#226CC8"/>
<stop offset="1" stop-color="#5EA8FF"/>
</linearGradient>
<linearGradient id="paint11_linear_1_241" x1="118.676" y1="210.444" x2="93.5315" y2="164.392" gradientUnits="userSpaceOnUse">
<stop stop-color="#F22003"/>
<stop offset="1" stop-color="#FF6130"/>
</linearGradient>
<linearGradient id="paint12_linear_1_241" x1="96.0272" y1="137.038" x2="107.784" y2="166.586" gradientUnits="userSpaceOnUse">
<stop stop-color="#226CC8"/>
<stop offset="1" stop-color="#5EA8FF"/>
</linearGradient>
<linearGradient id="paint13_linear_1_241" x1="103.223" y1="132.585" x2="105.925" y2="128.43" gradientUnits="userSpaceOnUse">
<stop stop-color="#FFD3B7"/>
<stop offset="1" stop-color="#FFA277"/>
</linearGradient>
<linearGradient id="paint14_linear_1_241" x1="1616.78" y1="127.249" x2="1615.04" y2="136.853" gradientUnits="userSpaceOnUse">
<stop stop-color="#FFD3B7"/>
<stop offset="1" stop-color="#FFA277"/>
</linearGradient>
<linearGradient id="paint15_linear_1_241" x1="105.214" y1="126.689" x2="103.018" y2="122.846" gradientUnits="userSpaceOnUse">
<stop stop-color="#FFD3B7"/>
<stop offset="1" stop-color="#FFA277"/>
</linearGradient>
<linearGradient id="paint16_linear_1_241" x1="115.952" y1="125.755" x2="50.2795" y2="109.702" gradientUnits="userSpaceOnUse">
<stop stop-color="#D59445"/>
<stop offset="1" stop-color="#FFE0A2"/>
</linearGradient>
<linearGradient id="paint17_linear_1_241" x1="103.389" y1="127.732" x2="101.192" y2="123.889" gradientUnits="userSpaceOnUse">
<stop stop-color="#FFD3B7"/>
<stop offset="1" stop-color="#FFA277"/>
</linearGradient>
<linearGradient id="paint18_linear_1_241" x1="57.9166" y1="308.42" x2="57.8156" y2="235.874" gradientUnits="userSpaceOnUse">
<stop stop-color="#226CC8"/>
<stop offset="1" stop-color="#5EA8FF"/>
</linearGradient>
<linearGradient id="paint19_linear_1_241" x1="265.692" y1="101.296" x2="275.795" y2="81.0235" gradientUnits="userSpaceOnUse">
<stop stop-color="#F22003"/>
<stop offset="1" stop-color="#FF6130"/>
</linearGradient>
<linearGradient id="paint20_linear_1_241" x1="284.452" y1="68.7338" x2="283.374" y2="66.2068" gradientUnits="userSpaceOnUse">
<stop stop-color="#FFD3B7"/>
<stop offset="1" stop-color="#FFA277"/>
</linearGradient>
<linearGradient id="paint21_linear_1_241" x1="285.84" y1="109.503" x2="285.84" y2="151.407" gradientUnits="userSpaceOnUse">
<stop stop-color="#09111D"/>
<stop offset="1" stop-color="#313945"/>
</linearGradient>
<linearGradient id="paint22_linear_1_241" x1="295.196" y1="109.67" x2="295.196" y2="152.429" gradientUnits="userSpaceOnUse">
<stop stop-color="#09111D"/>
<stop offset="1" stop-color="#313945"/>
</linearGradient>
<linearGradient id="paint23_linear_1_241" x1="290.06" y1="109.67" x2="290.06" y2="152.429" gradientUnits="userSpaceOnUse">
<stop stop-color="#09111D"/>
<stop offset="1" stop-color="#313945"/>
</linearGradient>
<linearGradient id="paint24_linear_1_241" x1="289.309" y1="96.0603" x2="285.416" y2="71.6817" gradientUnits="userSpaceOnUse">
<stop stop-color="#F22003"/>
<stop offset="1" stop-color="#FF6130"/>
</linearGradient>
<linearGradient id="paint25_linear_1_241" x1="305.684" y1="93.4449" x2="301.791" y2="69.0663" gradientUnits="userSpaceOnUse">
<stop stop-color="#F22003"/>
<stop offset="1" stop-color="#FF6130"/>
</linearGradient>
<linearGradient id="paint26_linear_1_241" x1="276.472" y1="55.0899" x2="280.765" y2="61.0327" gradientUnits="userSpaceOnUse">
<stop stop-color="#09111D"/>
<stop offset="1" stop-color="#313945"/>
</linearGradient>
<linearGradient id="paint27_linear_1_241" x1="284.204" y1="63.8745" x2="283.227" y2="61.3761" gradientUnits="userSpaceOnUse">
<stop stop-color="#FFD3B7"/>
<stop offset="1" stop-color="#FFA277"/>
</linearGradient>
</defs>
</svg>
